<svg width="587" height="416" viewBox="0 0 587 416" fill="none" xmlns="http://www.w3.org/2000/svg">
<rect width="408" height="408" rx="77" fill="#39206C"/>
<path d="M103.5 251.558C101.1 253.158 66.8333 352.558 50 402.058C53.8333 410.058 108.6 422.859 297 410.059C485.4 397.259 564.667 298.667 577.5 260C585 237.167 591.1 202.159 581.5 172.559C571.9 142.959 553.833 121.225 546 114.059C522.4 65.6586 457.833 86.8919 428.5 103.559C333.7 67.9586 273.667 83.3913 255.5 95.5577C156 33.5577 128.5 42.5577 92 64.5577C55.5 86.5577 106.5 249.558 103.5 251.558Z" fill="white"/>
<path d="M425.5 119.5C427.9 97.9 467.167 87.7253 486 84.5586H504C517.199 85.3586 523.166 88.8919 524.5 90.5586C532.333 94.0586 547 106.159 543 126.559C538 152.059 503.5 167.5 493 169C484.6 170.2 468.834 168.892 462.001 166.059C449.668 159.725 423.1 141.1 425.5 119.5Z" fill="black" stroke="black" stroke-linecap="round"/>
<path d="M418 211.559C430.833 233.225 464.2 262.759 495 207.559" stroke="black" stroke-width="21" stroke-linecap="round"/>
<path d="M143.501 197.559L216.001 121.059C172.401 89.8597 134.834 90.0594 121.501 94.0591C111.001 91.5591 137.001 192.559 138.501 196.059C139.701 198.859 142.334 198.226 143.501 197.559Z" fill="black"/>
<circle cx="317" cy="191.059" r="28" fill="black"/>
</svg>
