<svg width="66" height="64" viewBox="0 0 66 64" fill="none" xmlns="http://www.w3.org/2000/svg">
<g clip-path="url(#clip0_1089_1731)">
<path fill-rule="evenodd" clip-rule="evenodd" d="M51.302 2.12267C50.9841 2.35992 50.4316 2.87206 49.6445 3.65908L35.0504 18.2532C34.7378 18.5658 34.5245 18.7851 34.4106 18.911C33.3495 20.0837 32.6017 21.4303 32.167 22.9508C32.1203 23.1141 32.0469 23.4111 31.9468 23.8416L31.2552 26.8156C30.9938 27.9395 30.8551 28.6974 30.839 29.0891C30.7657 30.8756 31.3638 32.4093 32.6331 33.6901C33.9024 34.9709 35.4306 35.5827 37.2177 35.5256C37.6096 35.5131 38.3686 35.3812 39.4948 35.1299L42.5036 34.4588C42.9423 34.3609 43.2448 34.289 43.4111 34.2429C44.9607 33.8136 46.3321 33.0601 47.5253 31.9822C47.6534 31.8665 47.8763 31.6498 48.1942 31.3319L62.7558 16.7704C63.5428 15.9833 64.0549 15.4308 64.2922 15.1128C65.374 13.6629 65.9149 12.0302 65.9149 10.2147C65.9149 8.39917 65.374 6.76647 64.2922 5.3166C64.0549 4.99861 63.5428 4.44611 62.7558 3.65908C61.9688 2.87206 61.4163 2.35992 61.0983 2.12266C59.6484 1.04089 58.0157 0.5 56.2002 0.5C54.3846 0.5 52.7519 1.04089 51.302 2.12267ZM64.8155 35.9908L64.8935 30.6472L64.8937 30.6151C64.8937 29.4001 63.9088 28.4151 62.6937 28.4151C61.4912 28.4151 60.5115 29.3806 60.494 30.583L60.4939 30.588L60.4159 35.9265C60.2926 41.2989 59.8739 44.6617 59.16 46.0149C58.3155 47.6156 57.1028 48.8528 55.5218 49.7265C54.1851 50.4652 50.8246 50.9425 45.4405 51.1586L45.4209 51.1594L43.546 51.229L43.49 51.2309C42.377 51.2688 41.5915 51.3498 41.1335 51.4737C40.5106 51.6422 39.9287 51.9011 39.3876 52.2503C38.9633 52.5242 38.3648 53.071 37.5919 53.8907C35.9294 55.6538 34.2988 57.4466 32.7 59.2692C31.1013 57.4468 29.4707 55.654 27.8081 53.8907C27.0352 53.071 26.4367 52.5242 26.0124 52.2503C25.4714 51.9011 24.8894 51.6422 24.2665 51.4737C23.8085 51.3498 23.023 51.2688 21.9101 51.2308L21.8476 51.2287L19.953 51.1583C14.5732 50.9424 11.2149 50.4652 9.8782 49.7265C8.29719 48.8528 7.08445 47.6156 6.24 46.0149C5.5261 44.6617 5.10734 41.2928 4.98372 35.9082C4.92791 33.4771 4.9 31.0458 4.9 28.6141C4.9 26.1824 4.92791 23.751 4.98372 21.32C5.10734 15.9353 5.5261 12.5664 6.24 11.2132C7.08445 9.61255 8.29719 8.37536 9.8782 7.50165C11.2149 6.76294 14.5754 6.28557 19.9595 6.06955C24.2046 5.89922 28.4515 5.81406 32.7 5.81406L35.6914 5.82812L35.7017 5.82814C36.9168 5.82814 37.9017 4.84317 37.9017 3.62814C37.9017 2.41714 36.923 1.43385 35.7121 1.42817L35.7017 1.42812L32.7 1.41406C28.3927 1.41406 24.087 1.5004 19.7831 1.67308C13.7054 1.91693 9.69433 2.5761 7.75 3.65058C5.40217 4.94805 3.60163 6.78456 2.34837 9.1601C1.31218 11.1242 0.72435 15.1438 0.584877 21.219C0.528292 23.6837 0.5 26.1487 0.5 28.6141C0.5 31.0794 0.528292 33.5445 0.584877 36.0092C0.72435 42.0843 1.31218 46.1039 2.34837 48.068C3.60162 50.4435 5.40216 52.28 7.74999 53.5775C9.69433 54.652 13.7076 55.3113 19.7897 55.5553L21.6973 55.6261L21.76 55.6283C22.5341 55.6547 22.9866 55.6856 23.1174 55.721C23.2993 55.7702 23.4689 55.8456 23.6262 55.9471C23.7513 56.0278 24.0781 56.3485 24.6068 56.9092C26.2749 58.6783 27.9101 60.4779 29.5126 62.308C30.3554 63.2706 31.4179 63.7519 32.7 63.7519C33.9821 63.7519 35.0446 63.2706 35.8874 62.308C37.4899 60.4779 39.1252 58.6783 40.7932 56.9092C41.3218 56.3485 41.6487 56.0278 41.7738 55.9471C41.9311 55.8456 42.1007 55.7702 42.2827 55.721C42.4134 55.6856 42.8659 55.6547 43.64 55.6283L43.7092 55.6259L45.5967 55.5559L45.6169 55.555C51.6947 55.3112 55.7057 54.652 57.65 53.5775C59.9978 52.28 61.7983 50.4435 63.0516 48.068C64.0878 46.1039 64.6758 42.0782 64.8155 35.9908ZM38.1616 21.3645L52.7558 6.77035C53.3928 6.13334 53.7853 5.75963 53.9333 5.64922C55.4446 4.52164 56.9558 4.52164 58.467 5.64922C58.615 5.75962 59.0075 6.13333 59.6445 6.77035C60.2815 7.40737 60.6552 7.79987 60.7657 7.94784C61.8932 9.45909 61.8932 10.9703 60.7656 12.4816C60.6553 12.6295 60.2816 13.022 59.6445 13.6591L45.0829 28.2207C44.8178 28.4858 44.6488 28.6513 44.5759 28.7171C43.8974 29.33 43.1176 29.7585 42.2365 30.0026C42.1419 30.0288 41.9116 30.0827 41.5456 30.1643L38.5369 30.8355C37.6798 31.0267 37.1932 31.1241 37.0771 31.1278C36.5675 31.1441 36.1279 30.9658 35.7583 30.5929C35.3888 30.22 35.2144 29.7788 35.2353 29.2694C35.2401 29.1533 35.3419 28.6676 35.5408 27.8123L36.2324 24.8383C36.3159 24.4791 36.371 24.2531 36.3976 24.1602C36.6447 23.2956 37.07 22.5299 37.6733 21.8631C37.7381 21.7914 37.9009 21.6252 38.1616 21.3645Z" fill="#F2F2F2"/>
</g>
<defs>
<clipPath id="clip0_1089_1731">
<rect width="65.4149" height="63.2519" fill="white" transform="translate(0.5 0.5)"/>
</clipPath>
</defs>
</svg>
