<svg width="69" height="57" viewBox="0 0 69 57" fill="none" xmlns="http://www.w3.org/2000/svg">
<g clip-path="url(#clip0_1089_1728)">
<path fill-rule="evenodd" clip-rule="evenodd" d="M0.5 14.7877V43.8125C0.5 48.2958 0.951137 51.111 1.85341 52.2581C2.94253 53.6427 4.39846 54.5139 6.22121 54.8716C7.08303 55.0407 8.54656 54.8521 10.6118 54.3056C12.1078 53.9098 13.3586 53.6136 14.3641 53.4169C16.1259 53.0723 17.9045 52.9 19.7 52.9C24.0639 52.9 28.1986 53.8735 32.1039 55.8206C32.1544 55.8458 32.2271 55.8822 32.3218 55.9298C32.9732 56.2571 33.4875 56.4575 33.8648 56.531C34.4216 56.6395 34.9784 56.6395 35.5351 56.531C35.9124 56.4575 36.4268 56.2571 37.0782 55.9298C37.1711 55.8831 37.2438 55.8467 37.2961 55.8206C41.2014 53.8735 45.3361 52.9 49.7 52.9C51.4955 52.9 53.2741 53.0723 55.0359 53.4169C56.0415 53.6136 57.2923 53.9098 58.7882 54.3056C60.8535 54.8521 62.317 55.0407 63.1788 54.8716C65.0015 54.5139 66.4575 53.6427 67.5466 52.2581C68.4489 51.111 68.9 48.2958 68.9 43.8125V14.7878C68.9001 12.4919 68.7901 10.9237 68.57 10.0832C68.2567 8.8866 67.7437 7.82281 67.031 6.89186C66.2395 5.85801 64.8663 4.82276 62.9114 3.78611C58.7799 1.59537 54.3761 0.5 49.7 0.5C44.6291 0.5 39.9022 1.77494 35.5193 4.32481C35.4359 4.37334 35.3222 4.44001 35.1783 4.52481C34.9475 4.66082 34.7881 4.75243 34.7 4.79964C34.6119 4.75243 34.4525 4.66082 34.2217 4.52483C34.0776 4.43994 33.964 4.37326 33.8807 4.32481C29.4978 1.77494 24.7709 0.5 19.7 0.5C15.0239 0.5 10.6201 1.59537 6.48862 3.78611C4.53367 4.82275 3.16046 5.858 2.36899 6.89186C1.65629 7.82283 1.14329 8.8866 0.830001 10.0832C0.609936 10.9237 0.499936 12.4919 0.5 14.7877ZM34.7 4.81482L34.7031 4.81503H34.6969L34.7 4.81482ZM4.9 43.8125V14.8836V14.7876C4.89995 12.8695 4.96212 11.6728 5.08652 11.1976C5.25025 10.5723 5.509 10.0286 5.86275 9.56649C6.26496 9.04109 7.16068 8.41006 8.5499 7.67341C12.0368 5.82447 15.7535 4.9 19.7 4.9C23.9797 4.9 27.969 5.976 31.6681 8.12801C31.7443 8.17238 31.851 8.23495 31.9881 8.31573C32.1679 8.42169 32.3385 8.51754 32.5 8.60328V51.1513C28.4415 49.3838 24.1748 48.5 19.7 48.5C17.6204 48.5 15.5603 48.6996 13.5196 49.0987C12.4196 49.3138 11.0752 49.6316 9.48635 50.052C8.0738 50.4257 7.26789 50.593 7.06862 50.5539C6.31369 50.4058 5.72806 50.0671 5.31173 49.5378C5.03724 49.1888 4.9 47.2804 4.9 43.8125ZM36.9 51.1513C40.9585 49.3838 45.2252 48.5 49.7 48.5C51.7796 48.5 53.8397 48.6996 55.8804 49.0987C56.9805 49.3138 58.3249 49.6316 59.9137 50.052C61.3262 50.4257 62.1321 50.593 62.3314 50.5539C63.0863 50.4058 63.672 50.0671 64.0883 49.5378C64.3628 49.1888 64.5 47.2804 64.5 43.8125V14.7877C64.5001 12.8695 64.4379 11.6728 64.3135 11.1976C64.1498 10.5723 63.891 10.0286 63.5373 9.56649C63.135 9.0411 62.2393 8.41007 60.8501 7.67341C57.3632 5.82447 53.6465 4.9 49.7 4.9C45.4203 4.9 41.431 5.976 37.7319 8.12801C37.6558 8.17232 37.5491 8.23489 37.412 8.31571C37.2321 8.42168 37.0615 8.51753 36.9 8.60328V51.1513ZM14.3333 18.9504C16.1099 18.6501 17.8988 18.5 19.7 18.5C21.1371 18.5 22.5679 18.5958 23.9922 18.7874C25.0852 18.9344 25.9 19.8662 25.9 20.9679C25.9 22.1829 24.915 23.1679 23.7 23.1679C23.6019 23.1679 23.5039 23.1613 23.4046 23.1479C22.1747 22.9826 20.9399 22.9 19.7 22.9C18.1453 22.9 16.6014 23.0295 15.0684 23.2885C14.9455 23.3093 14.8229 23.3196 14.7 23.3196C13.485 23.3196 12.5 22.3346 12.5 21.1196C12.5 20.0461 13.2748 19.1293 14.3333 18.9504ZM14.3333 30.9504C16.1099 30.6501 17.8988 30.5 19.7 30.5C21.1371 30.5 22.5679 30.5958 23.9922 30.7874C25.0852 30.9344 25.9 31.8662 25.9 32.9679C25.9 34.1829 24.915 35.1679 23.7 35.1679C23.6019 35.1679 23.5039 35.1613 23.4046 35.1479C22.1747 34.9826 20.9399 34.9 19.7 34.9C18.1453 34.9 16.6014 35.0295 15.0684 35.2885C14.9455 35.3093 14.8229 35.3196 14.7 35.3196C13.485 35.3196 12.5 34.3346 12.5 33.1196C12.5 32.0461 13.2748 31.1293 14.3333 30.9504Z" fill="#F2F2F2"/>
</g>
<defs>
<clipPath id="clip0_1089_1728">
<rect width="68.4" height="56.1124" fill="white" transform="translate(0.5 0.5)"/>
</clipPath>
</defs>
</svg>
