<svg width="61" height="61" viewBox="0 0 61 61" fill="none" xmlns="http://www.w3.org/2000/svg">
<g clip-path="url(#clip0_1089_1737)">
<path fill-rule="evenodd" clip-rule="evenodd" d="M30.7 0.5C29.485 0.5 28.5 1.48497 28.5 2.7V28.5H2.7C1.48497 28.5 0.5 29.485 0.5 30.7C0.5 31.915 1.48497 32.9 2.7 32.9H28.5V58.7C28.5 59.915 29.485 60.9 30.7 60.9C31.915 60.9 32.9 59.915 32.9 58.7V32.9H58.7C59.915 32.9 60.9 31.915 60.9 30.7C60.9 29.485 59.915 28.5 58.7 28.5H32.9V2.7C32.9 1.48497 31.915 0.5 30.7 0.5Z" fill="#F2F2F2"/>
</g>
<defs>
<clipPath id="clip0_1089_1737">
<rect width="60.4" height="60.4" fill="white" transform="translate(0.5 0.5)"/>
</clipPath>
</defs>
</svg>
