<svg width="57" height="65" viewBox="0 0 57 65" fill="none" xmlns="http://www.w3.org/2000/svg">
<g clip-path="url(#clip0_1089_1734)">
<path fill-rule="evenodd" clip-rule="evenodd" d="M43.3079 0.831318C38.4411 0.610439 33.5718 0.5 28.7 0.5C23.8282 0.5 18.9589 0.610439 14.0921 0.831318C10.6047 0.989592 7.61782 2.27852 5.13154 4.69809C2.62973 7.13277 1.27531 10.0909 1.06825 13.5726C0.689417 19.9428 0.5 26.3186 0.5 32.7C0.5 39.0815 0.689417 45.4573 1.06825 51.8274C1.27531 55.3091 2.62973 58.2672 5.13154 60.7019C7.61783 63.1215 10.6047 64.4104 14.0921 64.5687C18.9588 64.7896 23.8281 64.9 28.7 64.9C33.5718 64.9 38.4411 64.7896 43.3079 64.5687C46.7953 64.4104 49.7822 63.1215 52.2685 60.7019C54.7703 58.2672 56.1247 55.3091 56.3317 51.8274C56.7106 45.4571 56.9 39.0813 56.9 32.7C56.9 26.3187 56.7106 19.9429 56.3318 13.5726C56.1247 10.0909 54.7703 7.13277 52.2685 4.69809C49.7822 2.27852 46.7953 0.989595 43.3079 0.831318ZM14.2916 5.2268C19.0919 5.00893 23.8947 4.9 28.7 4.9C33.5053 4.9 38.3081 5.00893 43.1084 5.2268C45.4821 5.33452 47.5125 6.20938 49.1998 7.85138C50.8867 9.49305 51.8 11.4872 51.9395 13.8338C52.3132 20.1172 52.5 26.4059 52.5 32.7C52.5 38.9943 52.3132 45.283 51.9395 51.5662C51.8 53.9128 50.8867 55.9069 49.1998 57.5486C47.5125 59.1906 45.4821 60.0655 43.1084 60.1732C38.3081 60.3911 33.5053 60.5 28.7 60.5C23.8947 60.5 19.0919 60.3911 14.2916 60.1732C11.9179 60.0655 9.88747 59.1906 8.20021 57.5486C6.51328 55.9069 5.60004 53.9128 5.46049 51.5662C5.08683 45.283 4.9 38.9943 4.9 32.7C4.9 26.4057 5.08683 20.117 5.46049 13.8338C5.60004 11.4872 6.51328 9.49305 8.20021 7.85138C9.88747 6.20938 11.9179 5.33452 14.2916 5.2268ZM40.9 19.7C40.9 18.485 39.915 17.5 38.7 17.5H18.7C17.485 17.5 16.5 18.485 16.5 19.7C16.5 20.915 17.485 21.9 18.7 21.9H38.7C39.915 21.9 40.9 20.915 40.9 19.7ZM40.9 31.7C40.9 30.485 39.915 29.5 38.7 29.5H18.7C17.485 29.5 16.5 30.485 16.5 31.7C16.5 32.915 17.485 33.9 18.7 33.9H38.7C39.915 33.9 40.9 32.915 40.9 31.7ZM30.7 41.5H18.7C17.485 41.5 16.5 42.485 16.5 43.7C16.5 44.915 17.485 45.9 18.7 45.9H30.7C31.915 45.9 32.9 44.915 32.9 43.7C32.9 42.485 31.915 41.5 30.7 41.5Z" fill="#F2F2F2"/>
</g>
<defs>
<clipPath id="clip0_1089_1734">
<rect width="56.4" height="64.4" fill="white" transform="translate(0.5 0.5)"/>
</clipPath>
</defs>
</svg>
